<?xml version="1.0" standalone="no"?>
<!DOCTYPE svg PUBLIC "-//W3C//DTD SVG 20010904//EN"
 "http://www.w3.org/TR/2001/REC-SVG-20010904/DTD/svg10.dtd">
<svg version="1.0" xmlns="http://www.w3.org/2000/svg"
 width="1280.000000pt" height="640.000000pt" viewBox="0 0 1280.000000 640.000000"
 preserveAspectRatio="xMidYMid meet">
<g transform="translate(0.000000,640.000000) scale(0.100000,-0.100000)"
fill="#000000" stroke="none">
<path d="M6089 5204 c-18 -20 -59 -57 -89 -84 l-55 -48 -115 43 -114 42 -69
-101 c-38 -55 -71 -102 -72 -104 -1 -1 -58 5 -125 15 -75 10 -125 13 -127 7
-2 -5 -23 -56 -46 -114 l-43 -105 -121 -10 c-67 -5 -124 -13 -128 -16 -3 -4
-14 -57 -25 -119 -11 -63 -23 -116 -27 -120 -5 -4 -26 -12 -48 -18 -22 -6 -73
-20 -114 -32 l-74 -22 6 -124 5 -124 -109 -58 c-64 -34 -109 -63 -109 -72 0
-8 13 -64 28 -123 l29 -108 -93 -77 c-51 -42 -93 -83 -93 -90 -1 -7 22 -58 50
-113 28 -56 48 -106 46 -113 -3 -6 -37 -51 -76 -100 -40 -49 -68 -93 -64 -100
4 -6 38 -51 77 -100 l69 -88 -51 -104 c-29 -57 -52 -110 -52 -117 0 -6 41 -46
90 -87 50 -41 90 -81 90 -90 0 -8 -11 -58 -25 -110 -14 -52 -25 -102 -25 -111
0 -10 39 -36 108 -72 l107 -56 0 -128 0 -128 105 -30 c58 -17 111 -33 118 -35
7 -3 21 -54 33 -125 11 -66 22 -121 23 -123 2 -2 53 -6 112 -9 60 -3 116 -10
125 -14 15 -8 29 -38 94 -195 l12 -30 64 7 c35 4 92 10 126 14 l61 7 68 -101
c77 -116 58 -111 213 -54 l94 35 61 -59 c33 -32 75 -71 92 -86 l30 -27 100 60
c54 33 106 60 115 60 8 0 53 -24 100 -53 46 -29 89 -56 96 -60 8 -5 46 25 102
78 50 47 92 85 95 85 2 0 54 -18 115 -41 61 -22 115 -38 119 -35 5 3 36 46 68
96 36 56 67 93 81 96 12 3 68 -1 125 -10 121 -20 111 -26 159 98 44 116 46
118 180 127 61 5 113 10 114 11 2 2 13 55 24 117 12 63 25 119 29 123 5 5 54
21 110 37 56 16 107 33 113 37 8 5 10 37 6 112 -3 61 -1 115 5 127 6 13 42 38
87 60 43 20 88 45 101 55 l23 17 -29 118 -29 118 55 46 c30 25 73 62 95 83
l39 36 -53 111 -54 111 72 93 c39 52 71 100 71 108 0 8 -25 46 -56 84 -95 118
-91 100 -41 207 68 142 70 124 -33 212 -49 42 -90 83 -90 92 0 8 12 62 26 120
20 77 24 108 16 116 -6 6 -55 34 -109 63 l-98 51 4 126 3 126 -56 16 c-31 9
-82 23 -113 32 -32 9 -62 20 -67 24 -4 5 -18 61 -30 127 l-21 118 -115 8 c-63
4 -120 9 -126 11 -6 3 -30 52 -54 111 -24 59 -49 109 -57 112 -12 5 -114 -7
-210 -23 -30 -6 -33 -3 -102 100 l-71 105 -62 -23 c-35 -13 -88 -33 -118 -45
l-55 -21 -85 85 c-47 47 -90 85 -96 85 -6 0 -55 -29 -111 -64 l-100 -64 -101
64 c-56 35 -105 64 -110 64 -4 0 -24 -16 -43 -36z"/>
<path d="M10319 5154 l-85 -85 -111 40 c-61 23 -115 41 -120 41 -6 0 -40 -45
-77 -100 -36 -55 -70 -100 -74 -100 -5 0 -53 7 -108 15 -54 8 -106 15 -115 15
-12 0 -30 -33 -62 -112 l-45 -113 -120 -10 c-66 -5 -123 -12 -126 -15 -3 -3
-14 -57 -25 -119 -12 -63 -23 -116 -25 -118 -2 -2 -55 -18 -117 -36 l-114 -33
3 -125 3 -124 -111 -58 c-85 -45 -110 -63 -106 -75 27 -89 55 -226 49 -232 -4
-4 -47 -39 -95 -79 l-87 -72 25 -55 c13 -30 37 -81 53 -112 l29 -58 -74 -95
c-40 -51 -74 -97 -74 -101 0 -3 34 -49 75 -102 l76 -95 -56 -110 -55 -110 95
-82 c52 -44 95 -81 95 -82 0 -1 -14 -54 -30 -117 -16 -63 -26 -118 -22 -122 4
-4 52 -31 107 -61 l100 -55 -3 -124 -4 -125 119 -34 118 -35 12 -50 c6 -27 17
-81 23 -121 l12 -72 51 -5 c29 -3 86 -9 127 -13 l74 -8 43 -105 c23 -58 43
-109 45 -113 2 -4 52 -1 112 8 60 8 117 15 125 15 9 0 46 -44 84 -99 l67 -100
49 15 c27 8 79 26 116 39 l67 25 46 -39 c26 -22 65 -58 87 -80 21 -23 46 -41
54 -41 8 0 54 25 103 55 48 30 96 55 106 55 10 0 57 -25 106 -55 48 -30 94
-55 102 -55 9 0 53 36 99 80 94 90 73 87 223 31 46 -17 88 -29 93 -25 5 3 37
46 70 95 33 50 67 93 75 96 8 3 63 -2 122 -11 125 -20 114 -27 163 97 45 114
47 116 159 123 140 10 133 4 155 128 11 65 24 111 34 120 9 8 59 26 111 41 52
15 99 31 104 36 5 5 8 59 7 122 -3 132 -9 122 117 187 46 24 86 49 89 57 3 7
-6 60 -21 118 -14 57 -23 111 -20 119 3 8 29 33 57 55 29 22 68 56 87 76 l34
35 -47 95 c-26 53 -47 104 -47 114 0 10 24 50 53 87 97 126 95 109 23 200 -92
117 -90 103 -41 208 66 140 69 123 -35 211 -49 42 -90 82 -90 88 0 7 11 55 25
107 14 52 25 103 25 112 0 11 -34 35 -105 73 l-104 56 -3 126 -3 127 -108 32
c-60 17 -112 36 -117 40 -4 5 -13 41 -20 79 -6 39 -16 91 -21 116 l-10 47
-123 7 -124 7 -43 110 c-24 61 -48 112 -55 115 -7 2 -60 -3 -119 -11 -58 -9
-109 -16 -113 -16 -5 0 -39 45 -76 100 -37 55 -73 100 -79 100 -6 0 -60 -19
-120 -41 l-109 -41 -88 87 -88 88 -106 -67 -105 -66 -96 61 c-53 33 -101 62
-108 65 -7 2 -51 -34 -98 -82z"/>
<path d="M1720 5145 c-47 -47 -90 -85 -97 -85 -7 0 -61 18 -120 40 -59 22
-110 37 -113 33 -4 -5 -36 -51 -73 -104 l-65 -95 -118 17 c-64 10 -120 16
-124 14 -4 -2 -26 -53 -49 -113 -49 -124 -43 -121 -181 -123 -116 -2 -111 2
-135 -133 l-20 -119 -50 -14 c-28 -8 -80 -23 -117 -34 l-67 -20 -3 -127 -3
-127 -100 -51 c-54 -29 -101 -57 -103 -63 -2 -6 9 -63 24 -126 15 -63 26 -116
23 -118 -71 -56 -179 -151 -179 -158 0 -5 23 -54 50 -109 27 -55 50 -103 50
-107 0 -5 -34 -51 -74 -103 -73 -92 -74 -95 -58 -116 9 -13 44 -57 76 -99 l59
-77 -53 -108 c-41 -82 -51 -112 -43 -122 7 -7 48 -42 92 -78 44 -36 80 -73 81
-82 0 -9 -11 -59 -25 -110 -14 -51 -25 -101 -25 -110 0 -11 34 -34 103 -70
l102 -53 5 -129 5 -130 115 -31 114 -31 21 -119 c23 -134 20 -132 120 -134 28
-1 73 -4 101 -7 l52 -7 43 -109 c23 -60 45 -111 49 -113 4 -2 49 2 101 10 151
23 138 28 209 -80 35 -53 66 -98 70 -100 4 -3 56 13 115 35 59 22 113 40 119
40 6 0 49 -38 96 -85 l85 -84 102 64 c56 36 106 65 110 65 5 0 53 -29 108 -65
l100 -64 85 84 c47 47 90 85 96 85 6 0 60 -18 119 -40 59 -22 111 -38 115 -35
4 2 35 47 70 100 71 108 58 103 209 80 52 -8 97 -12 101 -10 4 2 26 53 49 113
l43 110 45 6 c25 3 67 6 92 6 25 0 62 3 82 6 l36 6 19 121 19 121 85 23 c47
13 101 28 120 33 l35 9 0 128 0 127 100 53 c55 28 101 57 103 63 2 6 -9 62
-24 125 -15 63 -26 116 -23 118 79 63 179 150 179 157 0 6 -23 57 -52 114
l-52 104 45 57 c24 31 58 76 76 99 l32 42 -74 95 c-41 52 -75 97 -75 102 0 4
23 52 50 107 28 55 50 104 50 109 0 7 -108 102 -179 158 -3 2 8 55 23 118 15
63 26 120 24 126 -2 6 -49 34 -103 63 l-100 51 -2 123 c-1 68 -4 126 -7 129
-3 3 -56 20 -118 38 l-112 32 -21 119 c-23 135 -19 131 -135 133 -138 2 -132
-1 -181 123 -23 60 -45 111 -49 113 -4 2 -60 -4 -124 -14 l-118 -17 -69 103
c-38 57 -71 103 -72 103 -2 0 -51 -18 -110 -40 -58 -22 -112 -40 -119 -40 -7
0 -51 38 -98 85 l-85 84 -100 -64 c-55 -36 -104 -65 -109 -65 -8 0 -52 27
-191 116 -19 13 -28 7 -105 -71z"/>
</g>
</svg>
