<?xml version="1.0"?>
<svg xmlns="http://www.w3.org/2000/svg" height="512px" viewBox="0 0 512 512" width="512px"><path d="m295.320312 313.890625-24.667968-112.566406-.011719.003906c-1.21875-5.542969-5.53125-10.152344-11.441406-11.445313-8.09375-1.769531-16.085938 3.359376-17.851563 11.453126l-24.574218 112.484374c-16.660157 12.144532-27.511719 31.796876-27.511719 53.949219 0 36.796875 29.9375 66.738281 66.738281 66.738281s66.742188-29.9375 66.742188-66.738281c-.003907-22.109375-10.816407-41.730469-27.421876-53.878906zm-39.296874-39.175781 5.828124 26.585937c-1.929687-.167969-3.878906-.273437-5.851562-.273437-1.949219 0-3.875.101562-5.78125.269531zm-.023438 129.792968c-20.257812 0-36.738281-16.480468-36.738281-36.742187 0-20.257813 16.480469-36.738281 36.738281-36.738281s36.738281 16.480468 36.738281 36.738281-16.480469 36.742187-36.738281 36.742187zm0 0" fill="#4f5154"/><path d="m437.019531 74.980469c-48.351562-48.351563-112.640625-74.980469-181.019531-74.980469s-132.667969 26.628906-181.019531 74.980469c-48.351563 48.351562-74.980469 112.640625-74.980469 181.019531 0 64.316406 23.945312 125.800781 67.421875 173.136719 23.742187 25.84375 51.953125 46.210937 83.847656 60.523437 33.019531 14.824219 68.257813 22.339844 104.730469 22.339844 36.246094 0 71.28125-7.425781 104.132812-22.070312 31.730469-14.144532 59.84375-34.28125 83.566407-59.84375 44.042969-47.46875 68.300781-109.292969 68.300781-174.085938 0-68.378906-26.628906-132.667969-74.980469-181.019531zm-15.308593 334.699219c-89.851563 96.832031-242.949219 96.316406-332.195313-.839844-80.128906-87.230469-80.742187-225.226563 6.679687-312.644532 88.320313-88.320312 231.277344-88.332031 319.609376 0 86.792968 86.789063 87.761718 225.261719 5.90625 313.484376zm0 0" fill="#4f5154"/><path d="m256 57.550781c-110.535156 0-200.460938 89.925781-200.460938 200.460938 0 41.59375 12.621094 81.46875 36.496094 115.347656.003906.011719.015625.023437.019532.03125.0625.085937.117187.171875.179687.257813l.007813-.007813c2.71875 3.835937 7.179687 6.347656 12.238281 6.347656h48.34375c8.285156 0 15-6.71875 15-15 0-8.285156-6.714844-15-15-15h-40.363281c-14.757813-22.960937-23.667969-48.863281-26.179688-75.988281h44.257812c8.285157 0 15-6.714844 15-15s-6.714843-15-15-15h-44.421874c2.8125-34.378906 15.863281-65.902344 36.101562-91.503906l28.96875 28.96875c5.859375 5.859375 15.394531 6.007812 21.253906.148437 5.855469-5.859375 5.816406-15.503906-.042968-21.359375l-29.582032-29.582031c26.617188-23.683594 60.675782-39.164063 98.183594-42.449219v37.976563c0 8.285156 6.71875 15 15 15 8.285156 0 15-6.714844 15-15v-37.980469c37.527344 3.289062 71.597656 18.78125 98.21875 42.484375l-29.546875 29.550781c-5.859375 5.855469-5.832031 15.382813.027344 21.242188s15.324219 5.828125 21.183593-.03125l28.933594-28.929688c20.214844 25.59375 33.257813 57.101563 36.066406 91.464844h-44.421874c-8.28125 0-15 6.714844-15 15s6.71875 15 15 15h44.261718c-2.515625 27.125-11.425781 53.027344-26.183594 75.984375h-40.265624c-8.28125 0-15 6.71875-15 15 0 8.285156 6.71875 15 15 15h48.246093c5.058594 0 9.519531-2.507813 12.238281-6.34375l.007813.007813c.058594-.085938.117187-.167969.175781-.25.007813-.015626.019532-.027344.027344-.042969 23.875-33.878907 36.492188-73.753907 36.492188-115.34375 0-110.53125-89.925782-200.460938-200.460938-200.460938zm0 0" fill="#4f5154"/></svg>
